<svg width="26" height="19" viewBox="0 0 26 19" fill="none" xmlns="http://www.w3.org/2000/svg">
<path d="M2.03052 16.7973C1.12559 15.4644 1.16746 14.0167 1.01523 12.5027C0.875687 11.1149 0.870843 9.77723 0.980926 8.9378C1.3817 6.47613 2.9671 5.88295 4.44399 5.09724C5.00259 4.84992 6.06193 4.4248 6.35037 4.7144C6.23469 4.85347 6.17686 4.923 5.9067 5.45993C5.28877 7.05135 5.04173 9.75243 5.25105 11.8342C5.32716 12.5911 5.3465 12.9267 5.52561 13.4185C11.2746 8.69861 21.0104 2.46341 25.5695 0.0933969C25.9997 -0.141023 26.0314 0.174388 25.7295 0.395903C18.6581 5.50363 11.9766 11.9103 7.36382 16.3247C5.52234 18.087 3.45966 18.8956 2.03052 16.7973Z" fill="#A61613"/>
</svg>
